# xmcd CD database file
#
# Track frame offsets:
#	150
#	19694
#	36586
#	51574
#	61584
#	80347
#	92888
#	111473
#	124650
#	140924
#	158020
#
# Disc length: 2292 seconds
#
# Revision: 0
# Processed by: cddbd v1.5.2PL0 Copyright (c) Steve Scherf et al.
# Submitted via: CDex 1.70beta2
#
DISCID=9908f20b
DTITLE=John R. Long - Is it live or is it memorex
DYEAR=2008
DGENRE=Country
TTITLE0=Angel Without Wings
TTITLE1=Always Something Good About a Rainy Day
TTITLE2=Three
TTITLE3=Great American Dream
TTITLE4=Thank God For Grandma and Grandpa
TTITLE5=Plain'ole Country Boys
TTITLE6=Wine, Whiskey and Beer
TTITLE7=I'm Not Sorry
TTITLE8=I Did Not Come Here For Love
TTITLE9=The Last Fall
TTITLE10=On The Other Side
EXTD=YEAR: 2008
EXTT0=
EXTT1=
EXTT2=
EXTT3=
EXTT4=
EXTT5=
EXTT6=
EXTT7=
EXTT8=
EXTT9=
EXTT10=
PLAYORDER=
